<?xml version="1.0" encoding="UTF-8"?>
<!DOCTYPE svg PUBLIC "-//W3C//DTD SVG 1.1//EN" "http://www.w3.org/Graphics/SVG/1.1/DTD/svg11.dtd">
<!-- Creator: CorelDRAW -->
<svg xmlns="http://www.w3.org/2000/svg" xml:space="preserve" width="1469px" height="179px" version="1.1" style="shape-rendering:geometricPrecision; text-rendering:geometricPrecision; image-rendering:optimizeQuality; fill-rule:evenodd; clip-rule:evenodd"
viewBox="0 0 1469 179"
 xmlns:xlink="http://www.w3.org/1999/xlink"
 xmlns:xodm="http://www.corel.com/coreldraw/odm/2003">
 <defs>
  <style type="text/css">
   <![CDATA[
    .fil0 {fill:#000000;fill-rule:nonzero}
   ]]>
  </style>
 </defs>
 <g id="Layer_x0020_1">
  <metadata id="CorelCorpID_0Corel-Layer"/>
  <path id="Rectangle_1" class="fil0" d="M1468.5 0.5l0 179 -70 0 0 -1 3.59 0c16.57,0 32.54,-14.06 35.46,-31.24l19.49 -114.53c2.91,-17.17 -8.24,-31.23 -24.82,-31.23l-3.72 -0.02 0 -0.98 40 0zm-1469 179l0 -179 70 0 0 1 -3.58 0c-16.58,0 -32.55,14.06 -35.47,31.23l-19.49 114.53c-2.91,17.18 8.24,31.24 24.82,31.24l3.72 0 0 1 -40 0z"/>
 </g>
</svg>
