<?xml version="1.0" encoding="UTF-8"?>
<!DOCTYPE svg PUBLIC "-//W3C//DTD SVG 1.1//EN" "http://www.w3.org/Graphics/SVG/1.1/DTD/svg11.dtd">
<!-- Creator: CorelDRAW -->
<svg xmlns="http://www.w3.org/2000/svg" xml:space="preserve" width="67px" height="52px" version="1.1" style="shape-rendering:geometricPrecision; text-rendering:geometricPrecision; image-rendering:optimizeQuality; fill-rule:evenodd; clip-rule:evenodd"
viewBox="0 0 67 52"
 xmlns:xlink="http://www.w3.org/1999/xlink"
 xmlns:xodm="http://www.corel.com/coreldraw/odm/2003">
 <defs>
  <style type="text/css">
   <![CDATA[
    .fil0 {fill:url(#id0);fill-rule:nonzero}
   ]]>
  </style>
  <linearGradient id="id0" gradientUnits="userSpaceOnUse" x1="18.74" y1="29" x2="63.11" y2="21.63">
   <stop offset="0" style="stop-opacity:1; stop-color:#00C7B1"/>
   <stop offset="0.4" style="stop-opacity:1; stop-color:#3A81B7"/>
   <stop offset="1" style="stop-opacity:1; stop-color:#753BBD"/>
  </linearGradient>
 </defs>
 <g id="Layer_x0020_1">
  <metadata id="CorelCorpID_0Corel-Layer"/>
  <path class="fil0" d="M0.68 36.18l5.25 -26.75c0.5,-2.52 1.59,-4.66 3.27,-6.15 1.62,-1.45 3.72,-2.28 6.3,-2.28l37.47 0c1.01,0 1.99,0.09 2.93,0.27 2.82,0.53 5.21,1.83 6.9,3.7 1.71,1.89 2.7,4.33 2.7,7.11 0,0.78 -0.08,1.6 -0.25,2.44l-5.54 28.19c-0.4,2.05 -1.8,4.22 -3.67,5.8 -1.75,1.48 -3.96,2.49 -6.21,2.49l-37.26 0c-0.61,0 -1.23,-0.05 -1.83,-0.13 -3.13,-0.46 -5.7,-2.06 -7.49,-4.33 -1.76,-2.23 -2.75,-5.1 -2.75,-8.14 0,-0.7 0.06,-1.42 0.17,-2.15l0.01 -0.07zm8.41 -26.16l-5.24 26.71c-0.08,0.55 -0.12,1.11 -0.12,1.67 0,2.35 0.74,4.54 2.07,6.22 1.29,1.64 3.15,2.8 5.41,3.13 0.43,0.06 0.88,0.1 1.36,0.1l37.26 0c1.43,0 2.9,-0.7 4.11,-1.72 1.34,-1.14 2.34,-2.64 2.61,-4.01l5.54 -28.19c0.12,-0.63 0.18,-1.25 0.18,-1.85 0,-1.99 -0.69,-3.72 -1.88,-5.03 -1.22,-1.35 -2.98,-2.29 -5.09,-2.69 -0.73,-0.13 -1.51,-0.21 -2.33,-0.21l-37.47 0c-1.73,0 -3.11,0.53 -4.13,1.44 -1.14,1.02 -1.91,2.56 -2.28,4.43z"/>
 </g>
</svg>
