<?xml version="1.0" encoding="UTF-8"?>
<!DOCTYPE svg PUBLIC "-//W3C//DTD SVG 1.1//EN" "http://www.w3.org/Graphics/SVG/1.1/DTD/svg11.dtd">
<!-- Creator: CorelDRAW -->
<svg xmlns="http://www.w3.org/2000/svg" xml:space="preserve" width="67px" height="52px" version="1.1" style="shape-rendering:geometricPrecision; text-rendering:geometricPrecision; image-rendering:optimizeQuality; fill-rule:evenodd; clip-rule:evenodd"
viewBox="0 0 67 52"
 xmlns:xlink="http://www.w3.org/1999/xlink"
 xmlns:xodm="http://www.corel.com/coreldraw/odm/2003">
 <defs>
  <style type="text/css">
   <![CDATA[
    .fil0 {fill:black;fill-rule:nonzero}
   ]]>
  </style>
 </defs>
 <g id="Layer_x0020_1">
  <metadata id="CorelCorpID_0Corel-Layer"/>
  <path class="fil0" d="M8.91 9.91l-5.29 26.9c-0.08,0.55 -0.12,1.12 -0.12,1.68 0,2.37 0.75,4.57 2.09,6.26 1.3,1.65 3.18,2.82 5.45,3.15 0.43,0.07 0.89,0.1 1.38,0.1l37.54 0c1.45,0 2.92,-0.7 4.14,-1.73 1.36,-1.14 2.36,-2.65 2.63,-4.04l5.58 -28.38c0.13,-0.64 0.19,-1.26 0.19,-1.87 0,-2 -0.69,-3.74 -1.9,-5.07 -1.22,-1.35 -3,-2.3 -5.13,-2.7 -0.73,-0.14 -1.51,-0.21 -2.34,-0.21l-37.76 0c-1.75,0 -3.14,0.53 -4.17,1.45 -1.15,1.02 -1.92,2.58 -2.29,4.46z"/>
 </g>
</svg>
