<?xml version="1.0" encoding="utf-8"?>
<!-- Generator: Adobe Illustrator 27.9.0, SVG Export Plug-In . SVG Version: 6.00 Build 0)  -->
<svg version="1.1" id="Layer" xmlns="http://www.w3.org/2000/svg" xmlns:xlink="http://www.w3.org/1999/xlink" x="0px" y="0px"
	 viewBox="0 0 1352.4 135" style="enable-background:new 0 0 1352.4 135;" xml:space="preserve">
<style type="text/css">
	.st0{fill:#000000;}
	.st1{fill:#000000;}
</style>
<path id="red" class="st0" d="M1311.8,135H16.8c-11.1,0-18.4-8.9-16.5-20L17,20C19,8.9,29.5,0,40.6,0h1295c11.1,0,18.4,8.9,16.5,20
	l-16.8,95C1333.4,126.1,1322.8,135,1311.8,135L1311.8,135z"/>
<path id="wite" class="st1" d="M1311.8,135H16.8c-11.1,0-18.4-8.9-16.5-20L17,20C19,8.9,29.5,0,40.6,0h1295c11.1,0,18.4,8.9,16.5,20
	l-16.8,95C1333.4,126.1,1322.8,135,1311.8,135L1311.8,135z"/>
<path id="black" d="M1311.8,135H16.8c-11.1,0-18.4-8.9-16.5-20L17,20
	C19,8.9,29.5,0,40.6,0h1295c11.1,0,18.4,8.9,16.5,20l-16.8,95C1333.4,126.1,1322.8,135,1311.8,135L1311.8,135z"/>
<path id="down" class="st1" d="M4.7,90l-4.4,25c-2,11.1,5.4,20,16.5,20h1295c11.1,0,21.6-8.9,23.5-20l4.4-25H4.7z"/>
</svg>
