<?xml version="1.0" encoding="utf-8"?>
<!-- Generator: Adobe Illustrator 27.9.0, SVG Export Plug-In . SVG Version: 6.00 Build 0)  -->
<svg version="1.1" id="Layer" xmlns="http://www.w3.org/2000/svg" xmlns:xlink="http://www.w3.org/1999/xlink" x="0px" y="0px"
	 viewBox="0 0 252.4 136" style="enable-background:new 0 0 252.4 136;" xml:space="preserve">
<style type="text/css">
	.st0{fill:#FFFFFF;}
	.st1{fill:#F20825;}
</style>
<path id="wite_down" class="st0" d="M4.7,91l-4.4,25c-2,11.1,5.4,20,16.5,20h195c11.1,0,21.6-8.9,23.5-20l4.4-25H4.7z"/>
<path id="wite" class="st0" d="M239.7,91.1L252.1,21c1.9-11.1-5.4-20-16.5-20h-195C29.5,1,19,9.9,17,21L4.7,91.1H239.7z"/>
<path id="red" class="st1" d="M211.8,136h-195c-11.1,0-18.4-8.9-16.5-20L17,21C19,9.9,29.5,1,40.6,1h195c11.1,0,18.4,8.9,16.5,20
	l-16.8,95C233.4,127.1,222.8,136,211.8,136L211.8,136z"/>
<path id="down" d="M4.7,91l-4.4,25c-2,11.1,5.4,20,16.5,20h195c11.1,0,21.6-8.9,23.5-20l4.4-25H4.7z"/>
</svg>
