<?xml version="1.0" encoding="utf-8"?>
<!-- Generator: Adobe Illustrator 27.9.0, SVG Export Plug-In . SVG Version: 6.00 Build 0)  -->
<svg version="1.1" id="Layer" xmlns="http://www.w3.org/2000/svg" xmlns:xlink="http://www.w3.org/1999/xlink" x="0px" y="0px"
	 viewBox="0 0 1254.3 887" style="enable-background:new 0 0 1254.3 887;" xml:space="preserve">
<style type="text/css">
	.st0{fill:#FFFFFF;}
	.st1{fill:#F42525;}
	.st2{fill:#000000;}
</style>
<path id="wite-down" class="st0" d="M123.3,154L0.6,849.2C-3.1,870.1,10.8,887,31.7,887h1035.1c20.8,0,40.7-16.9,44.4-37.7
	L1233.9,154H123.3z"/>
<path id="wite-up" class="st0" d="M123.3,154h1110.6l20.5-116.2
	c3.7-20.9-10.2-37.8-31.1-37.8H188.2c-20.9,0-40.7,16.9-44.4,37.8"/>
<path id="red" class="st1" d="M123.3,154L0.6,849.2C-3.1,870.1,10.8,887,31.7,887h1035.1c20.8,0,40.7-16.9,44.4-37.7L1233.9,154
	H123.3z"/>
<path id="black" class="st2" d="M123.3,154h1110.6l20.5-116.2c3.7-20.9-10.2-37.8-31.1-37.8H188.2c-20.9,0-40.7,16.9-44.4,37.8"/>
</svg>
