<?xml version="1.0" encoding="UTF-8"?>
<!DOCTYPE svg PUBLIC "-//W3C//DTD SVG 1.1//EN" "http://www.w3.org/Graphics/SVG/1.1/DTD/svg11.dtd">
<!-- Creator: CorelDRAW -->
<svg xmlns="http://www.w3.org/2000/svg" xml:space="preserve" width="114px" height="30px" version="1.1" style="shape-rendering:geometricPrecision; text-rendering:geometricPrecision; image-rendering:optimizeQuality; fill-rule:evenodd; clip-rule:evenodd"
viewBox="0 0 114 30"
 xmlns:xlink="http://www.w3.org/1999/xlink"
 xmlns:xodm="http://www.corel.com/coreldraw/odm/2003">
 <defs>
  <style type="text/css">
   <![CDATA[
    .fil0 {fill:black}
   ]]>
  </style>
 </defs>
 <g id="Layer_x0020_1">
  <metadata id="CorelCorpID_0Corel-Layer"/>
  <path class="fil0" d="M0 0l114 0 0 30 -114 0 0 -30zm2.11 22.13l2.22 -14.26c0.67,-3.73 4.24,-6.87 7.9,-6.87l37.1 0c3.66,0 6.16,3.14 5.59,6.87l-2.32 14.26c-0.67,3.83 -4.24,6.87 -7.9,6.87l-37.1 0c-3.66,0 -6.16,-3.04 -5.49,-6.87zm57 0l2.22 -14.26c0.67,-3.73 4.24,-6.87 7.9,-6.87l37.1 0c3.66,0 6.17,3.14 5.59,6.87l-2.31 14.26c-0.68,3.83 -4.25,6.87 -7.91,6.87l-37.1 0c-3.66,0 -6.16,-3.04 -5.49,-6.87z"/>
 </g>
</svg>
