<?xml version="1.0" encoding="UTF-8"?>
<!DOCTYPE svg PUBLIC "-//W3C//DTD SVG 1.1//EN" "http://www.w3.org/Graphics/SVG/1.1/DTD/svg11.dtd">
<!-- Creator: CorelDRAW -->
<svg xmlns="http://www.w3.org/2000/svg" xml:space="preserve" width="1532px" height="746px" version="1.1" style="shape-rendering:geometricPrecision; text-rendering:geometricPrecision; image-rendering:optimizeQuality; fill-rule:evenodd; clip-rule:evenodd"
viewBox="0 0 1532 746"
 xmlns:xlink="http://www.w3.org/1999/xlink"
 xmlns:xodm="http://www.corel.com/coreldraw/odm/2003">
 <defs>
  <style type="text/css">
   <![CDATA[
    .fil0 {fill:#2B2A29;fill-rule:nonzero}
   ]]>
  </style>
 </defs>
 <g id="Layer_x0020_1">
  <metadata id="CorelCorpID_0Corel-Layer"/>
  <path id="Rectangle_1" class="fil0" d="M1492.46 0l39.54 0 0 746 -170.89 0 0 -1 1 0c22.01,0 43.22,-18 47.12,-40l117.15 -664c3.9,-22 -10.91,-40 -32.92,-40l-1 0 0 -1zm-1452.83 746l0 -1 -0.99 0c-22.01,0 -36.92,-18 -33.02,-40l117.15 -664c3.9,-22 25.11,-40 47.12,-40l1 0 0 -1 -170.89 0 0 746 39.63 0z"/>
 </g>
</svg>
