<?xml version="1.0" encoding="utf-8"?>
<!-- Generator: Adobe Illustrator 27.7.0, SVG Export Plug-In . SVG Version: 6.00 Build 0)  -->
<svg version="1.1" id="Layer_1" xmlns:xodm="http://www.corel.com/coreldraw/odm/2003"
	 xmlns="http://www.w3.org/2000/svg" xmlns:xlink="http://www.w3.org/1999/xlink" x="0px" y="0px" viewBox="0 0 259 137"
	 style="enable-background:new 0 0 259 137;" xml:space="preserve">
<style type="text/css">
	.st0{fill:#FFFFFF;}
	.st1{fill:#F42525;}
</style>
<g id="Layer_x0020_1">
	<path id="bottomw" class="st0" d="M244.9,92L5.1,92l-4.3,24.3c-2,11.1,5.4,20.2,16.5,20.2h199.8c11,0,21.6-9,23.5-20.2L244.9,92
		L244.9,92z"/>
	<path id="bottom" d="M0.8,116.3c-2,11.1,5.4,20.2,16.5,20.2h199.8c11,0,21.6-9,23.5-20.2l16.6-94.7c1.9-11.1-5.4-20.2-16.5-20.2
		H40.9c-11,0-21.6,9-23.5,20.2L0.8,116.3L0.8,116.3z"/>
	<polygon id="centerw" class="st0" points="5.1,92 244.9,92 252.9,46 13.1,46 	"/>
	<polygon id="center" class="st1" points="5.1,92 244.9,92 252.9,46 13.1,46 	"/>
	<path id="topw" class="st0" d="M17.4,21.7L13,46.5h239.8l4.3-24.8c2-11.1-5.4-20.2-16.4-20.2H40.9C29.8,1.5,19.3,10.5,17.4,21.7z"
		/>
	<path id="top" class="st1" d="M17.4,21.7L13,46.5h239.8l4.3-24.8c2-11.1-5.4-20.2-16.4-20.2H40.9C29.8,1.5,19.3,10.5,17.4,21.7z"/>
</g>
</svg>
