<?xml version="1.0" encoding="UTF-8"?>
<!DOCTYPE svg PUBLIC "-//W3C//DTD SVG 1.1//EN" "http://www.w3.org/Graphics/SVG/1.1/DTD/svg11.dtd">
<!-- Creator: CorelDRAW -->
<svg xmlns="http://www.w3.org/2000/svg" xml:space="preserve" width="1350px" height="162px" version="1.1" style="shape-rendering:geometricPrecision; text-rendering:geometricPrecision; image-rendering:optimizeQuality; fill-rule:evenodd; clip-rule:evenodd"
viewBox="0 0 1350 162"
 xmlns:xlink="http://www.w3.org/1999/xlink"
 xmlns:xodm="http://www.corel.com/coreldraw/odm/2003">
 <defs>
  <style type="text/css">
   <![CDATA[
    .hide {display: none;}
    .showr {stroke:#00C7B1;stroke-width:3; fill:none}
    .showl {stroke:#753BBD;stroke-width:3; fill:none}

   ]]>
  </style>
 </defs>
 <g id="Layer_x0020_1">
  <metadata id="CorelCorpID_0Corel-Layer"/>
  <path id="arrow1l" class="hide" d="M109.45 158l26.64 -153.18m123.51 0l-10.91 62.76 60.5 -62.76m167.59 0l-142.68 148.08 274.11 -38.28 -8.27 43.38"/>
  <path id="arrow2l" class="hide" d="M88.06 158l26.64 -153.18m123.51 0l-9.52 54.76 52.79 -54.76m167.59 0l-134.97 140.08 274.11 -38.28 -9.79 51.38"/>
  <path id="arrow3l" class="hide" d="M66.67 158l26.64 -153.18m123.51 0l-8.13 46.76 45.08 -46.76m167.59 0l-127.26 132.08 274.11 -38.28 -11.31 59.38"/>
  <path id="arrow4l" class="hide" d="M45.28 158l26.64 -153.18m123.51 0l-6.74 38.77 37.37 -38.77m167.6 0l-119.56 124.08 274.11 -38.28 -12.84 67.38"/>
  <path id="arrow5l" class="hide" d="M23.89 158l26.64 -153.18m123.51 0l-5.35 30.77 29.66 -30.77m167.6 0l-111.85 116.08 274.11 -38.28 -14.36 75.38"/>
  <path id="arrow6l" class="hide" d="M152.65 4.82l-3.96 22.77 21.95 -22.77m167.6 0l-104.14 108.08 274.11 -38.28 -15.88 83.38"/>
  <path id="arrow7l" class="hide" d="M131.26 4.82l-0.03 0.18m179.3 -0.18l-96.43 100.08 274.11 -38.28 -17.41 91.38"/>
  <path id="arrow1r" class="hide" d="M1038.56 158l300.72 -106.16m0.13 -0.65l-171.95 -46.37"/>
  <path id="arrow2r" class="hide" d="M1088.88 158l246.88 -87.15m1.06 -5.71l-223.69 -60.32"/>
  <path id="arrow3r" class="hide" d="M1139.2 158l193.04 -68.14m2 -10.76l-275.44 -74.28"/>
  <path id="arrow4r" class="hide" d="M1189.53 158l139.19 -49.13m2.93 -15.82l-327.18 -88.23"/>
  <path id="arrow5r" class="hide" d="M1239.85 158l85.35 -30.13m3.87 -20.87l-378.93 -102.18"/>
  <path id="arrow6r" class="hide" d="M1290.18 158l31.42 -11.09m4.88 -25.95l-430.67 -116.14"/>
  <polyline id="arrow7r" class="hide" points="1323.9,134.91 892.4,18.55 903.37,4.82 "/>
  <polyline id="arrow8r" class="hide" points="1320.91,148.76 897.4,34.55 921.14,4.82 "/>
  <polyline id="arrow9r" class="hide" points="1300.86,158 902.4,50.55 938.92,4.82 "/>
  <polyline id="arrow10r" class="hide" points="1246.53,158 907.4,66.55 956.7,4.82 "/>
 </g>
</svg>
