<?xml version="1.0" encoding="UTF-8"?>
<!DOCTYPE svg PUBLIC "-//W3C//DTD SVG 1.1//EN" "http://www.w3.org/Graphics/SVG/1.1/DTD/svg11.dtd">
<!-- Creator: CorelDRAW -->
<svg xmlns="http://www.w3.org/2000/svg" xml:space="preserve" width="610px" height="94px" version="1.1" style="shape-rendering:geometricPrecision; text-rendering:geometricPrecision; image-rendering:optimizeQuality; fill-rule:evenodd; clip-rule:evenodd"
viewBox="0 0 610 94"
 xmlns:xlink="http://www.w3.org/1999/xlink"
 xmlns:xodm="http://www.corel.com/coreldraw/odm/2003">
 <defs>
  <style type="text/css">
   <![CDATA[
    .fil0 {fill:black;fill-rule:nonzero}
   ]]>
  </style>
 </defs>
 <g id="Layer_x0020_1">
  <metadata id="CorelCorpID_0Corel-Layer"/>
  <path id="rect" class="fil0" d="M0 94l20.85 0 0 -1 -1 0c-11.03,0 -18.46,-9.05 -16.55,-20.11l8.83 -51.78c1.9,-11.06 12.54,-20.11 23.58,-20.11l2 0 0 -1 -37.71 0 0 94zm610 0l-37.71 0 0 -1 2 0c11.04,0 21.67,-9.05 23.58,-20.11l8.83 -51.78c1.91,-11.06 -5.52,-20.11 -16.56,-20.11l-1 0 0 -1 20.86 0 0 94z"/>
 </g>
</svg>
