<?xml version="1.0" encoding="utf-8"?>
<!-- Generator: Adobe Illustrator 27.7.0, SVG Export Plug-In . SVG Version: 6.00 Build 0)  -->
<svg version="1.1" id="Layer_1" xmlns:xodm="http://www.corel.com/coreldraw/odm/2003"
	 xmlns="http://www.w3.org/2000/svg" xmlns:xlink="http://www.w3.org/1999/xlink" x="0px" y="0px" viewBox="0 0 259 137"
	 style="enable-background:new 0 0 259 137;" xml:space="preserve">
<style type="text/css">
	.st0{fill:#FFFFFF;}
	.st1{fill:#F42525;}
</style>
<g id="Layer_x0020_1">
	<path id="white" class="st0" d="M0.8,116.3c-2,11.1,5.4,20.2,16.5,20.2h199.8c11,0,21.6-9,23.5-20.2l16.6-94.7
		c1.9-11.1-5.4-20.2-16.5-20.2H40.9c-11,0-21.6,9-23.5,20.2L0.8,116.3L0.8,116.3z"/>
	<path id="darkred" d="M0.8,116.3c-2,11.1,5.4,20.2,16.5,20.2h199.8c11,0,21.6-9,23.5-20.2l16.6-94.7c1.9-11.1-5.4-20.2-16.5-20.2
		H40.9c-11,0-21.6,9-23.5,20.2L0.8,116.3L0.8,116.3z"/>
	<path id="red" class="st1" d="M0.8,116.3c-2,11.1,5.4,20.2,16.5,20.2h199.8c11,0,21.6-9,23.5-20.2l16.6-94.7
		c1.9-11.1-5.4-20.2-16.5-20.2H40.9c-11,0-21.6,9-23.5,20.2L0.8,116.3L0.8,116.3z"/>
</g>
</svg>
