<?xml version="1.0" encoding="UTF-8"?>
<!DOCTYPE svg PUBLIC "-//W3C//DTD SVG 1.1//EN" "http://www.w3.org/Graphics/SVG/1.1/DTD/svg11.dtd">
<!-- Creator: CorelDRAW -->
<svg xmlns="http://www.w3.org/2000/svg" xml:space="preserve" width="1529px" height="152px" version="1.1" style="shape-rendering:geometricPrecision; text-rendering:geometricPrecision; image-rendering:optimizeQuality; fill-rule:evenodd; clip-rule:evenodd"
viewBox="0 0 1529 152"
 xmlns:xlink="http://www.w3.org/1999/xlink"
 xmlns:xodm="http://www.corel.com/coreldraw/odm/2003">
 <defs>
  <style type="text/css">
   <![CDATA[
    .fil0 {fill:black;fill-rule:nonzero}
   ]]>
  </style>
 </defs>
 <g id="Layer_x0020_1">
  <metadata id="CorelCorpID_0Corel-Layer"/>
  <path id="Rectangle_1" class="fil0" d="M1528.5 152l0 -152 -54.34 0 0 1 27.38 0c13.79,0 22.98,11.3 20.58,25l-17.59 100c-2.39,13.8 -15.58,25 -29.37,25l-1 0 0 1 54.34 0zm-1529 -152l54.34 0 0 1 -1 0c-13.79,0 -26.98,11.2 -29.37,25l-17.59 100c-2.4,13.7 6.8,25 20.58,25l1.01 0 0 1 -27.97 0 0 -152z"/>
 </g>
</svg>
