<?xml version="1.0" encoding="utf-8"?>
<!-- Generator: Adobe Illustrator 27.9.0, SVG Export Plug-In . SVG Version: 6.00 Build 0)  -->
<svg version="1.1" id="Layer_2_00000139987604007570621250000015901361202521784744_"
	 xmlns="http://www.w3.org/2000/svg" xmlns:xlink="http://www.w3.org/1999/xlink" x="0px" y="0px" viewBox="0 0 999.8 150"
	 style="enable-background:new 0 0 999.8 150;" xml:space="preserve">
<style type="text/css">
	.st0{fill:#F42525;}
	.st1{fill:#FFFFFF;}
	.st2{fill:url(#down_00000084499159589060347020000006852983454178255275_);}
</style>
<path id="red" class="st0" d="M974.6,0h-923C35.1,0,19.3,13.4,16.3,30L0.5,120c-2.9,16.6,8.1,30,24.7,30h923
	c16.6,0,32.4-13.4,35.3-30l15.9-90C1002.3,13.4,991.2,0,974.6,0L974.6,0z"/>
<path id="black" d="M974.6,0h-923C35.1,0,19.3,13.4,16.3,30L0.5,120c-2.9,16.6,8.1,30,24.7,30h923c16.6,0,32.4-13.4,35.3-30l15.9-90
	C1002.3,13.4,991.2,0,974.6,0L974.6,0z"/>
<path id="wite" class="st1" d="M974.6,0h-923C35.1,0,19.3,13.4,16.3,30L0.5,120c-2.9,16.6,8.1,30,24.7,30h923
	c16.6,0,32.4-13.4,35.3-30l15.9-90C1002.3,13.4,991.2,0,974.6,0L974.6,0z"/>
<linearGradient id="down_00000137097433956513560480000008116244020228085127_" gradientUnits="userSpaceOnUse" x1="14.115" y1="42.6036" x2="967.4739" y2="210.7065">
	<stop  offset="0" style="stop-color:#000000"/>
	<stop  offset="0.4826" style="stop-color:#000000"/>
	<stop  offset="0.4952" style="stop-color:#3A3A3A"/>
</linearGradient>
<path id="down" style="fill:url(#down_00000137097433956513560480000008116244020228085127_);" d="M2.6,108l-2.1,12
	c-2.9,16.6,8.1,30,24.7,30h923c16.6,0,32.4-13.4,35.3-30l2.1-12H2.6z"/>
</svg>
