<?xml version="1.0" encoding="UTF-8"?>
<svg id="Layer_2" data-name="Layer 2" xmlns="http://www.w3.org/2000/svg" viewBox="0 0 38 38">
  <defs>
    <style>
      .cls-1 {
        fill: #dcdcdc;
        stroke-width: 0px;
      }
    </style>
  </defs>
  <g id="_Вызов_тренера" data-name="Вызов тренера">
    <path class="cls-1" d="m37.42,7.4c.77-.77.77-2.03,0-2.8l-4.02-4.02c-.77-.77-2.03-.77-2.8,0l-11.6,11.6L7.4.58c-.77-.77-2.03-.77-2.8,0L.58,4.6c-.77.77-.77,2.03,0,2.8l11.6,11.6L.58,30.6c-.77.77-.77,2.03,0,2.8l4.02,4.02c.77.77,2.03.77,2.8,0L37.42,7.4Z"/>
    <path class="cls-1" d="m19,25.82l11.6,11.6c.77.77,2.03.77,2.8,0l4.02-4.02c.77-.77.77-2.03,0-2.8l-11.6-11.6-6.82,6.82Z"/>
  </g>
</svg>