<?xml version="1.0" encoding="UTF-8"?>
<!DOCTYPE svg PUBLIC "-//W3C//DTD SVG 1.1//EN" "http://www.w3.org/Graphics/SVG/1.1/DTD/svg11.dtd">
<!-- Creator: CorelDRAW -->
<svg xmlns="http://www.w3.org/2000/svg" xml:space="preserve" width="54px" height="91px" version="1.1" style="shape-rendering:geometricPrecision; text-rendering:geometricPrecision; image-rendering:optimizeQuality; fill-rule:evenodd; clip-rule:evenodd"
viewBox="0 0 54 91"
 xmlns:xlink="http://www.w3.org/1999/xlink"
 xmlns:xodm="http://www.corel.com/coreldraw/odm/2003">
 <defs>
  <style type="text/css">
   <![CDATA[
    .hide { display: none;}
    .show {fill:#01C7B1}
   ]]>
  </style>
 </defs>
 <g id="Layer_x0020_1">
  <path id="arrowt" class="hide" d="M46.078 2.029l-30.957 23.659 5.932 -21.655 -10.925 -0.355 -8.906 32.513c-1.167,4.256 2.466,8.321 6.268,8.308l33.367 -0.103 2.544 -10.75 -22.223 0.07 30.739 -23.947c1.036,-0.807 1.607,-4.17 0.417,-6.045 -1.189,-1.874 -4.648,-2.923 -6.256,-1.695z"/>
  <path id="arrowb" class="hide" d="M7.922 89.973l30.957 -23.658 -5.933 21.655 10.926 0.355 8.906 -32.514c1.166,-4.255 -2.466,-8.321 -6.268,-8.307l-33.367 0.103 -2.545 10.75 22.223 -0.07 -30.739 23.947c-1.035,0.807 -1.607,4.169 -0.417,6.045 1.19,1.874 4.649,2.923 6.257,1.694z"/>
 </g>
</svg>
