<?xml version="1.0" encoding="UTF-8"?>
<!DOCTYPE svg PUBLIC "-//W3C//DTD SVG 1.1//EN" "http://www.w3.org/Graphics/SVG/1.1/DTD/svg11.dtd">
<!-- Creator: CorelDRAW -->
<svg xmlns="http://www.w3.org/2000/svg" xml:space="preserve" width="1494px" height="730px" version="1.1" style="shape-rendering:geometricPrecision; text-rendering:geometricPrecision; image-rendering:optimizeQuality; fill-rule:evenodd; clip-rule:evenodd"
viewBox="0 0 1494 730"
 xmlns:xlink="http://www.w3.org/1999/xlink"
 xmlns:xodm="http://www.corel.com/coreldraw/odm/2003">
 <defs>
  <style type="text/css">
   <![CDATA[
    .hide { display: none;}
    .show {stroke:#753BBD;stroke-width:3; fill:none}
   ]]>
  </style>
 </defs>
 <g id="Layer_x0020_1">
  <path id="arrow1" class="hide" d="M77.34 334.53l161.21 0 41.96 118.89 -229.39 0m-8.38 38.05l329.6 220.97c5.11,3.42 9.89,9.59 13.4,17.33m-198.64 -0.77l-172.51 -115.81"/>
  <path id="arrow2" class="hide" d="M81.75 314.53l164.8 0 41.96 118.89 -232.98 0m-7.92 35.95l332.73 223.07c8.88,5.95 16.76,20.15 18.69,36.56m-174.13 0l-204.3 -137.14"/>
  <path id="arrow3" class="hide" d="M86.15 294.53l168.4 0 41.96 118.89 -236.57 0m-7.46 33.85l335.86 225.17c12.36,8.29 22.8,32.57 17.91,56.56m-143.56 0l-237.21 -159.24"/>
  <path id="arrow4" class="hide" d="M90.56 274.53l171.99 0 41.96 118.89 -240.16 0m-7 31.76l338.99 227.26c15.88,10.64 28.57,47.65 9.72,76.56m-105.58 0l-270.13 -181.34m-26.72 121.18l17.54 54.43"/>
  <path id="arrow5" class="hide" d="M94.97 254.53l175.58 0 41.96 118.89 -243.75 0m-6.54 29.66l342.12 229.36c16.94,11.36 30.27,52.76 5.47,82.28 -7.46,7.39 -15.71,12.2 -24.07,15.05m-44.97 -0.77c-3.81,-1.43 -7.15,-3.13 -9.86,-4.94l-295.69 -198.5m-25.72 116.66l26.06 80.88 -14.68 0"/>
  <path id="arrow6" class="hide" d="M99.38 234.53l179.17 0 41.96 118.89 -247.34 0m-6.08 27.56l345.25 231.46c16.94,11.36 30.27,52.76 5.47,82.28 -26.62,26.38 -63.35,19.78 -78.9,9.34l-298.82 -200.6m-25.5 109.73l28.97 89.91 -39.69 0"/>
 </g>
</svg>
