<?xml version="1.0" encoding="UTF-8"?>
<!DOCTYPE svg PUBLIC "-//W3C//DTD SVG 1.1//EN" "http://www.w3.org/Graphics/SVG/1.1/DTD/svg11.dtd">
<!-- Creator: CorelDRAW -->
<svg xmlns="http://www.w3.org/2000/svg" xml:space="preserve" width="1492px" height="728px" version="1.1" style="shape-rendering:geometricPrecision; text-rendering:geometricPrecision; image-rendering:optimizeQuality; fill-rule:evenodd; clip-rule:evenodd"
viewBox="0 0 1492 728"
 xmlns:xlink="http://www.w3.org/1999/xlink"
 xmlns:xodm="http://www.corel.com/coreldraw/odm/2003">
 <defs>
  <style type="text/css">
   <![CDATA[
    .str0 {stroke:black;stroke-width:0.9;stroke-miterlimit:22.9256}
    .fil0 {fill:black;fill-rule:nonzero}
   ]]>
  </style>
 </defs>
 <g id="Layer_x0020_1">
  <metadata id="CorelCorpID_0Corel-Layer"/>
  <path class="fil0 str0" d="M1450.25 4l-1248.89 0c-13.25,0 -26.51,5.44 -37.21,14.2 -10.71,8.77 -18.81,20.85 -21.73,34.11l-137.29 624.73c-2.55,11.59 -0.93,23.86 6.59,33.36 7.37,9.31 18.55,13.6 30.16,13.6l1245.23 0c13.22,0 26.48,-5.41 37.18,-14.12 10.72,-8.72 18.86,-20.73 21.83,-33.92l140.7 -624.74c2.62,-11.62 1.08,-24 -6.44,-33.57 -4.87,-6.21 -11.88,-10.69 -20.4,-12.61 -3.03,-0.68 -6.29,-1.04 -9.73,-1.04z"/>
 </g>
</svg>
