<?xml version="1.0" encoding="UTF-8"?>
<!DOCTYPE svg PUBLIC "-//W3C//DTD SVG 1.1//EN" "http://www.w3.org/Graphics/SVG/1.1/DTD/svg11.dtd">
<!-- Creator: CorelDRAW -->
<svg xmlns="http://www.w3.org/2000/svg" xml:space="preserve" width="237px" height="50px" version="1.1" style="shape-rendering:geometricPrecision; text-rendering:geometricPrecision; image-rendering:optimizeQuality; fill-rule:evenodd; clip-rule:evenodd"
viewBox="0 0 237 50"
 xmlns:xlink="http://www.w3.org/1999/xlink"
 xmlns:xodm="http://www.corel.com/coreldraw/odm/2003">
 <defs>
  <style type="text/css">
   <![CDATA[
    .fil0 {fill:url(#id0);fill-rule:nonzero}
   ]]>
  </style>
  <linearGradient id="id0" gradientUnits="userSpaceOnUse" x1="67.4" y1="66.33" x2="178.5" y2="-10.87">
   <stop offset="0" style="stop-opacity:1; stop-color:#8F2C82"/>
   <stop offset="0.180392" style="stop-opacity:1; stop-color:#6A48BC"/>
   <stop offset="1" style="stop-opacity:1; stop-color:#00C7B1"/>
  </linearGradient>
 </defs>
 <g id="Layer_x0020_1">
  <metadata id="CorelCorpID_0Corel-Layer"/>
  <path class="fil0" d="M15.81 0l210.32 0c0.65,0 1.31,0.07 1.95,0.2 2.05,0.42 3.99,1.46 5.43,2.9 1.5,1.52 2.46,3.49 2.46,5.66 0.01,0.46 -0.04,0.94 -0.13,1.42l-6.74 30.33c-0.52,2.62 -1.66,5.08 -3.39,6.83 -1.63,1.64 -3.75,2.66 -6.32,2.66l-209.56 0c-0.65,0 -1.31,-0.06 -1.96,-0.19 -2.04,-0.41 -3.99,-1.46 -5.42,-2.9 -1.51,-1.52 -2.48,-3.49 -2.48,-5.66 0,-0.46 0.05,-0.94 0.14,-1.42l5.98 -30.33c0.52,-2.63 1.67,-5.08 3.4,-6.83 1.62,-1.64 3.74,-2.67 6.32,-2.67zm210.32 3.54l-210.32 0c-1.57,0 -2.86,0.62 -3.85,1.63 -1.22,1.23 -2.05,3.03 -2.44,5.01l-5.98 30.33c-0.04,0.24 -0.07,0.49 -0.07,0.74 0,1.18 0.56,2.28 1.44,3.16 0.95,0.96 2.25,1.66 3.64,1.93 0.42,0.09 0.85,0.13 1.28,0.13l209.56 0c1.56,0 2.85,-0.62 3.84,-1.63 1.23,-1.23 2.05,-3.04 2.44,-5.01l6.74 -30.33c0.05,-0.24 0.07,-0.49 0.07,-0.74 0.01,-1.17 -0.56,-2.28 -1.44,-3.16 -0.95,-0.96 -2.25,-1.66 -3.63,-1.93 -0.43,-0.09 -0.86,-0.13 -1.28,-0.13z"/>
 </g>
</svg>
