<?xml version="1.0" encoding="UTF-8"?>
<!DOCTYPE svg PUBLIC "-//W3C//DTD SVG 1.1//EN" "http://www.w3.org/Graphics/SVG/1.1/DTD/svg11.dtd">
<!-- Creator: CorelDRAW -->
<svg xmlns="http://www.w3.org/2000/svg" xml:space="preserve" width="1558px" height="837px" version="1.1" style="shape-rendering:geometricPrecision; text-rendering:geometricPrecision; image-rendering:optimizeQuality; fill-rule:evenodd; clip-rule:evenodd"
viewBox="0 0 1558 837"
 xmlns:xlink="http://www.w3.org/1999/xlink"
 xmlns:xodm="http://www.corel.com/coreldraw/odm/2003">
 <defs>
  <style type="text/css">
   <![CDATA[
    .fil0 {fill:black;fill-rule:nonzero}
   ]]>
  </style>
 </defs>
 <g id="Layer_x0020_1">
  <metadata id="CorelCorpID_0Corel-Layer"/>
  <path id="rect" class="fil0" d="M187.03 0.5l0 1 -1 0c-22.48,0 -44.15,18.55 -48.15,41.1l-132.27 752.8c-3.9,22.55 11.29,41.1 33.77,41.1l0.99 0 0 1 -40.37 0 0 -837 187.03 0zm1183.93 837l0 -1 1 0c22.48,0 44.16,-18.55 48.16,-41.1l132.27 -752.8c3.89,-22.55 -11.19,-41.1 -33.77,-41.1l-1 0 0 -1 40.38 0 0 837 -187.04 0z"/>
 </g>
</svg>
