<?xml version="1.0" encoding="UTF-8"?>
<!DOCTYPE svg PUBLIC "-//W3C//DTD SVG 1.1//EN" "http://www.w3.org/Graphics/SVG/1.1/DTD/svg11.dtd">
<!-- Creator: CorelDRAW -->
<svg xmlns="http://www.w3.org/2000/svg" xml:space="preserve" width="1494px" height="730px" version="1.1" style="shape-rendering:geometricPrecision; text-rendering:geometricPrecision; image-rendering:optimizeQuality; fill-rule:evenodd; clip-rule:evenodd"
viewBox="0 0 1494 730"
 xmlns:xlink="http://www.w3.org/1999/xlink"
 xmlns:xodm="http://www.corel.com/coreldraw/odm/2003">
 <defs>
  <style type="text/css">
   <![CDATA[
    .hide { display: none;}
    .show {stroke:#00C7B1;stroke-width:3; fill:none}
   ]]>
  </style>
 </defs>
 <g id="Layer_x0020_3">
   <path id="arrow1" class="hide" d="M1402.62 449.09l-413.68 279.91m-188.67 0c-17.43,-35.43 -14.22,-95.83 16.82,-116.82l633.83 -428.57 -479.92 0.17 60.04 -183.78"/>
  <path id="arrow2" class="hide" d="M1397.46 471.96l-379.88 257.04m-218.35 0c-9.97,-35.42 -3.88,-82.74 22.86,-100.82l633.83 -428.57 -479.93 0.17 62.98 -192.75 434.48 0"/>
  <path id="arrow3" class="hide" d="M1392.3 494.84l-346.07 234.16m-245.31 0c-4.46,-32.5 3.3,-69.36 26.17,-84.82l627.17 -424.06m1.02 -4.5l-474.29 0.16 62.98 -192.75 444.49 0"/>
  <path id="arrow4" class="hide" d="M1387.15 517.71l-312.28 211.29m-270.14 0c-0.37,-27.86 8.19,-55.86 27.36,-68.83l617.02 -417.19m2.56 -11.36l-465.68 0.16 62.98 -192.75 443.89 0"/>
  <path id="arrow5" class="hide" d="M1381.99 540.58l-278.47 188.42m-293 0c2.53,-22.09 11.09,-42.36 26.57,-52.83l606.86 -410.32m4.11 -18.23l-457.07 0.16 62.98 -192.75 437.53 0"/>
  <path id="arrow6" class="hide" d="M1376.83 563.45l-244.67 165.55m-313.63 0c4.2,-15.55 11.92,-28.96 23.56,-36.83l596.7 -403.45m5.66 -25.1l-448.46 0.15 62.98 -192.74 428.92 0"/>
  <path id="arrow7" class="hide" d="M1371.67 586.33l-210.86 142.67m-331.26 0c4.33,-8.6 10.15,-15.83 17.54,-20.83l586.54 -396.59m7.21 -31.96l-439.85 0.15 62.98 -192.74 420.31 0"/>
  <path id="arrow8" class="hide" d="M1366.51 609.2l-177.06 119.8m-343.33 0c1.86,-1.78 3.85,-3.4 5.97,-4.83l576.39 -389.72m8.75 -38.82l-431.24 0.14 62.98 -192.74 411.7 0"/>
  <path id="arrow9" class="hide" d="M1361.35 632.07l-143.25 96.93m-344.49 0l549.71 -371.68m10.3 -45.69l-422.63 0.14 62.98 -192.75 403.09 0"/>
  <path id="arrow10" class="hide" d="M1356.19 654.94l-109.45 74.06m-344.47 0l515.89 -348.82m11.85 -52.55l-414.02 0.14 62.98 -192.75 394.49 0"/>
 </g>
</svg>
