<?xml version="1.0" encoding="UTF-8"?>
<!DOCTYPE svg PUBLIC "-//W3C//DTD SVG 1.1//EN" "http://www.w3.org/Graphics/SVG/1.1/DTD/svg11.dtd">
<!-- Creator: CorelDRAW -->
<svg xmlns="http://www.w3.org/2000/svg" xml:space="preserve" width="1494px" height="730px" version="1.1" style="shape-rendering:geometricPrecision; text-rendering:geometricPrecision; image-rendering:optimizeQuality; fill-rule:evenodd; clip-rule:evenodd"
viewBox="0 0 1494 730"
 xmlns:xlink="http://www.w3.org/1999/xlink"
 xmlns:xodm="http://www.corel.com/coreldraw/odm/2003">
 <defs>
  <style type="text/css">
   <![CDATA[
    .fil1 {fill:url(#id0);fill-rule:nonzero}
    .fil0 {fill:url(#id1);fill-rule:nonzero}
   ]]>
  </style>
  <linearGradient id="id0" gradientUnits="userSpaceOnUse" x1="737.75" y1="180.87" x2="745.98" y2="638.18">
   <stop offset="0" style="stop-opacity:1; stop-color:#00C7B1"/>
   <stop offset="0.690196" style="stop-opacity:1; stop-color:#753BBD"/>
   <stop offset="1" style="stop-opacity:1; stop-color:#8F2C82"/>
  </linearGradient>
  <linearGradient id="id1" gradientUnits="userSpaceOnUse" x1="2476.32" y1="200.38" x2="3008.23" y2="92.43">
   <stop offset="0" style="stop-opacity:1; stop-color:#8F2C82"/>
   <stop offset="0.0470588" style="stop-opacity:1; stop-color:#82339F"/>
   <stop offset="0.14902" style="stop-opacity:1; stop-color:#753BBD"/>
   <stop offset="1" style="stop-opacity:1; stop-color:#00C7B1"/>
  </linearGradient>
 </defs>
 <g id="Layer_x0020_1">
  <metadata id="CorelCorpID_0Corel-Layer"/>
  <path class="fil0" d="M2444.05 -20.11l609.02 0c4.55,0 8.88,0.38 12.95,1.08 13.55,2.33 23.95,8.31 30.97,16.19 7.05,7.9 10.67,17.7 10.67,27.66 0,2.92 -0.32,5.9 -0.97,8.87l-62.02 284.89c-2.7,12.38 -8.77,23.88 -17.91,32.02 -8.42,7.49 -19.33,12.15 -32.52,12.15l-617.42 0c-2.62,0 -5.28,-0.24 -7.93,-0.69 -11.3,-1.92 -22.08,-7.79 -30,-15.67 -7.99,-7.95 -13.17,-18.01 -13.17,-28.21 0,-2.04 0.22,-4.11 0.67,-6.21l61.63 -287.89c2.6,-12.18 9.94,-23.42 20.11,-31.48 9.86,-7.81 22.39,-12.71 35.92,-12.71zm609.02 8.73l-609.02 0c-11.01,0 -21.28,4.04 -29.41,10.49 -8.61,6.83 -14.82,16.31 -17.01,26.57l-61.63 287.89c-0.32,1.49 -0.47,3.03 -0.47,4.61 0,7.98 4.18,15.99 10.64,22.42 6.55,6.5 15.36,11.34 24.52,12.9 1.99,0.34 4.05,0.52 6.13,0.52l617.42 0c10.39,0 18.98,-3.67 25.6,-9.56 7.71,-6.87 12.87,-16.76 15.21,-27.52l62.03 -284.89c0.51,-2.37 0.77,-4.81 0.77,-7.23 0,-8.05 -2.89,-15.93 -8.51,-22.24 -5.64,-6.33 -14.08,-11.14 -25.16,-13.05 -3.42,-0.59 -7.13,-0.91 -11.11,-0.91z"/>
  <path class="fil1" d="M203.09 2l1247.21 0c30.6,0 46.9,23.28 40.39,52.18l-140.51 623c-6.34,28.14 -33.74,50.82 -62.8,50.82l-1243.55 0c-30.41,0 -46.94,-23.03 -40.59,-51.9l137.11 -623c6.55,-29.76 32.09,-51.1 62.74,-51.1zm1247.21 4l-1247.21 0c-26.86,0 -53.12,22.13 -58.85,48.17l-137.11 623.01c-5.53,25.11 9.95,46.82 36.7,46.82l1243.55 0c26.78,0 53.09,-21.98 58.93,-47.91l140.51 -623c5.8,-25.74 -10.26,-47.09 -36.52,-47.09z"/>
 </g>
</svg>
