<?xml version="1.0" encoding="UTF-8"?>
<!DOCTYPE svg PUBLIC "-//W3C//DTD SVG 1.1//EN" "http://www.w3.org/Graphics/SVG/1.1/DTD/svg11.dtd">
<!-- Creator: CorelDRAW -->
<svg xmlns="http://www.w3.org/2000/svg" xml:space="preserve" width="1153px" height="76px" version="1.1" style="shape-rendering:geometricPrecision; text-rendering:geometricPrecision; image-rendering:optimizeQuality; fill-rule:evenodd; clip-rule:evenodd"
viewBox="0 0 1153 76"
 xmlns:xlink="http://www.w3.org/1999/xlink"
 xmlns:xodm="http://www.corel.com/coreldraw/odm/2003">
 <defs>
  <style type="text/css">
   <![CDATA[
    .fil0 {fill:url(#id0);fill-rule:nonzero}
   ]]>
  </style>
  <linearGradient id="id0" gradientUnits="userSpaceOnUse" x1="-10.8" y1="37.89" x2="762.52" y2="24.77">
   <stop offset="0" style="stop-opacity:1; stop-color:#00C7B1"/>
   <stop offset="0.439216" style="stop-opacity:1; stop-color:#438DBB"/>
   <stop offset="1" style="stop-opacity:1; stop-color:#8653C5"/>
  </linearGradient>
 </defs>
 <g id="Layer_x0020_1">
  <metadata id="CorelCorpID_0Corel-Layer"/>
  <path class="fil0" d="M22.08 0l1119.27 0c0.78,0 1.57,0.09 2.35,0.25 2.3,0.49 4.48,1.68 6.09,3.3 1.65,1.66 2.71,3.79 2.71,6.11 0,0.52 -0.06,1.06 -0.17,1.61l-11.44 53.87c-0.64,3.04 -1.98,5.89 -3.97,7.9 -1.81,1.82 -4.15,2.96 -7,2.96l-1119.27 0c-0.78,0 -1.57,-0.09 -2.35,-0.25 -2.29,-0.49 -4.48,-1.67 -6.09,-3.29 -1.65,-1.66 -2.71,-3.79 -2.71,-6.12 0,-0.52 0.05,-1.06 0.17,-1.62l11.44 -53.86c0.64,-3.06 1.97,-5.9 3.96,-7.91 1.81,-1.82 4.15,-2.95 7.01,-2.95zm1119.27 2l-1119.27 0c-2.28,0 -4.15,0.9 -5.59,2.36 -1.71,1.72 -2.86,4.21 -3.43,6.91l-11.43 53.87c-0.09,0.4 -0.13,0.8 -0.13,1.2 0,1.77 0.83,3.42 2.13,4.72 1.34,1.34 3.16,2.32 5.09,2.73 0.63,0.14 1.28,0.21 1.93,0.21l1119.27 0c2.27,0 4.14,-0.91 5.58,-2.37 1.71,-1.72 2.87,-4.22 3.44,-6.91l11.43 -53.86c0.09,-0.4 0.13,-0.8 0.13,-1.2 0,-1.76 -0.83,-3.41 -2.13,-4.71 -1.33,-1.35 -3.16,-2.34 -5.09,-2.74 -0.63,-0.14 -1.28,-0.21 -1.93,-0.21z"/>
 </g>
</svg>
