<?xml version="1.0" encoding="UTF-8"?>
<!DOCTYPE svg PUBLIC "-//W3C//DTD SVG 1.1//EN" "http://www.w3.org/Graphics/SVG/1.1/DTD/svg11.dtd">
<!-- Creator: CorelDRAW -->
<svg xmlns="http://www.w3.org/2000/svg" xml:space="preserve" width="834px" height="55px" version="1.1" style="shape-rendering:geometricPrecision; text-rendering:geometricPrecision; image-rendering:optimizeQuality; fill-rule:evenodd; clip-rule:evenodd"
viewBox="0 0 834 55"
 xmlns:xlink="http://www.w3.org/1999/xlink"
 xmlns:xodm="http://www.corel.com/coreldraw/odm/2003">
 <defs>
  <style type="text/css">
   <![CDATA[
    .fil0 {fill:url(#id0);fill-rule:nonzero}
   ]]>
  </style>
  <linearGradient id="id0" gradientUnits="userSpaceOnUse" x1="46.6" y1="24.72" x2="729.26" y2="25.52">
   <stop offset="0" style="stop-opacity:1; stop-color:#00C7B1"/>
   <stop offset="1" style="stop-opacity:1; stop-color:#8653C5"/>
  </linearGradient>
 </defs>
 <g id="Layer_x0020_1">
  <metadata id="CorelCorpID_0Corel-Layer"/>
  <path class="fil0" d="M16.6 0.5l809.07 0c0.59,0 1.19,0.07 1.78,0.19 1.71,0.37 3.33,1.25 4.52,2.44 1.24,1.24 2.03,2.83 2.03,4.57 0,0.4 -0.04,0.81 -0.13,1.22l-8.27 38.57c-0.47,2.24 -1.46,4.33 -2.95,5.81 -1.36,1.35 -3.11,2.2 -5.25,2.2l-809.07 0c-0.59,0 -1.19,-0.07 -1.78,-0.19 -1.71,-0.37 -3.33,-1.24 -4.52,-2.43 -1.23,-1.24 -2.03,-2.83 -2.03,-4.58 0,-0.39 0.04,-0.8 0.13,-1.22l8.27 -38.57c0.48,-2.25 1.46,-4.34 2.94,-5.82 1.36,-1.35 3.11,-2.19 5.26,-2.19zm809.07 2l-809.07 0c-1.57,0 -2.86,0.62 -3.85,1.61 -1.19,1.19 -2,2.92 -2.4,4.81l-8.27 38.57c-0.05,0.27 -0.08,0.54 -0.08,0.81 -0.01,1.17 0.56,2.28 1.45,3.16 0.92,0.93 2.19,1.61 3.52,1.89 0.44,0.1 0.9,0.15 1.36,0.15l809.07 0c1.56,0 2.85,-0.62 3.85,-1.62 1.19,-1.19 2,-2.92 2.4,-4.8l8.27 -38.57c0.05,-0.27 0.08,-0.54 0.08,-0.81 0,-1.17 -0.57,-2.28 -1.44,-3.16 -0.93,-0.92 -2.19,-1.61 -3.53,-1.89 -0.44,-0.1 -0.9,-0.15 -1.36,-0.15z"/>
 </g>
</svg>
