<?xml version="1.0" encoding="utf-8"?>
<!-- Generator: Adobe Illustrator 27.9.0, SVG Export Plug-In . SVG Version: 6.00 Build 0)  -->
<svg version="1.1" id="Layer_1" xmlns="http://www.w3.org/2000/svg" xmlns:xlink="http://www.w3.org/1999/xlink" x="0px" y="0px"
	 viewBox="0 0 80 80" style="enable-background:new 0 0 80 80;" xml:space="preserve">
<style type="text/css">
	.st0{fill:#FFFFFF;}
</style>
<path class="st0" d="M23,6c-0.6,0-1,0.5-1,1v3c0,0,0,0.1,0,0.1c-0.8,0-1.6,0.1-2.4,0.3c0,0,0,0,0-0.1l-0.5-1.8
	c-0.1-0.4-0.5-0.7-0.9-0.8c-0.6,0-1,0.4-1,1c0,0.1,0,0.2,0,0.3l0.5,1.8c0,0,0,0,0,0.1c-0.8,0.3-1.5,0.6-2.3,0.9c0,0,0,0,0-0.1
	l-1.5-2.6c-0.2-0.3-0.5-0.5-0.9-0.5c-0.6,0-1,0.5-1,1c0,0.2,0.1,0.3,0.1,0.5l1.5,2.6c0,0,0,0,0,0.1c-0.7,0.5-1.3,1-1.9,1.5
	c0,0,0,0-0.1-0.1l-1.3-1.3c-0.2-0.2-0.4-0.3-0.7-0.3c-0.6,0-1,0.4-1,1c0,0.3,0.1,0.5,0.3,0.7l1.3,1.3c0,0,0,0,0.1,0.1
	c-0.5,0.6-1.1,1.2-1.5,1.9c0,0,0,0-0.1,0l-2.6-1.5C6,16,5.8,16,5.6,16c-0.6,0-1,0.5-0.9,1.1c0,0.3,0.2,0.6,0.5,0.8l2.6,1.5
	c0,0,0,0,0.1,0c-0.4,0.7-0.7,1.5-0.9,2.3c0,0,0,0-0.1,0L5,21.1c-0.1,0-0.2,0-0.3,0c-0.6,0-1,0.5-1,1c0,0.4,0.3,0.8,0.8,0.9l1.8,0.5
	c0,0,0,0,0.1,0c-0.2,0.8-0.2,1.6-0.3,2.4C6,26,6,26,6,26H3c-0.6,0-1,0.4-1,1c0,0.6,0.4,1,1,1c0,0,0,0,0,0h3c0,0,0,0,0.1,0
	c0,0.8,0.2,1.6,0.3,2.4c0,0,0,0-0.1,0l-1.8,0.5c-0.5,0.1-0.9,0.7-0.7,1.2C3.9,32.7,4.4,33,5,32.9c0,0,0,0,0,0l1.8-0.5c0,0,0,0,0.1,0
	c0.3,0.8,0.6,1.5,0.9,2.3c0,0,0,0-0.1,0l-2.6,1.5c-0.5,0.3-0.7,0.9-0.4,1.4C5,38,5.6,38.2,6.1,37.9c0,0,0,0,0.1,0l2.6-1.5
	c0,0,0,0,0.1,0c0.5,0.7,0.9,1.3,1.5,1.9c0,0,0,0,0,0l-1.3,1.3c-0.4,0.4-0.4,1,0,1.4c0.4,0.4,1,0.4,1.4,0c0,0,0,0,0,0l1.3-1.3
	c0,0,0,0,0,0c0.2,0.2,0.4,0.3,0.6,0.5C9.1,42.3,7,45.9,7,50c0,6.6,5.4,12,12,12h4c0.6,0,1-0.4,1-1c0-0.6-0.4-1-1-1c0,0,0,0,0,0h-4
	c-5.5,0-10-4.5-10-10c0-5.2,4-9.5,9.1-10l0.8-0.1c0,0,0.1,0,0.1,0c0.6,0,1-0.4,1-1c0-0.5-0.3-0.9-0.8-1c0.9-4,4.5-7,8.8-7
	c0,0,0.1,0,0.3,0l0.8,0l0.2-0.8C30.6,24.4,35.8,20,42,20c5.7,0,10.5,3.6,12.3,8.7l0.3,0.9l0.9-0.2c0.8-0.2,1.7-0.3,2.5-0.3
	c5.5,0,10,4.5,10,10c0,0.7-0.1,1.5-0.2,2.2l-0.2,0.9l0.9,0.3c3.8,1.1,6.5,4.5,6.5,8.7c0,5-4,9-9,9h-8c-0.6,0-1,0.4-1,1
	c0,0.6,0.4,1,1,1c0,0,0,0,0,0h8c6.1,0,11-4.9,11-11c0-4.7-3-8.6-7.2-10.2c0.1-0.6,0.2-1.2,0.2-1.8c0-6.6-5.4-12-12-12
	c-0.8,0-1.5,0.2-2.3,0.3C53.5,21.9,48.2,18,42,18c-0.7,0-1.3,0.3-2,0.4l0.8-0.5c0.5-0.3,0.7-0.9,0.4-1.4C41,16.2,40.7,16,40.4,16
	c-0.2,0-0.4,0-0.5,0.1l-2.6,1.5c0,0,0,0-0.1,0c-0.5-0.7-0.9-1.3-1.5-1.9c0,0,0,0,0,0l1.3-1.3c0.4-0.4,0.4-1,0-1.4
	c-0.2-0.2-0.5-0.3-0.7-0.3c-0.3,0-0.5,0.1-0.7,0.3l-1.3,1.3c0,0,0,0,0,0c-0.6-0.5-1.3-1-1.9-1.5c0,0,0,0,0-0.1l1.5-2.6
	c0.3-0.5,0.1-1.1-0.3-1.4c-0.2-0.1-0.3-0.1-0.5-0.1c-0.4,0-0.7,0.2-0.9,0.5l-1.5,2.6c0,0,0,0,0,0.1c-0.7-0.4-1.5-0.7-2.3-0.9
	c0,0,0,0,0-0.1L28.9,9c0.2-0.5-0.2-1.1-0.7-1.2c-0.1,0-0.2,0-0.3,0c-0.4,0-0.8,0.3-0.9,0.8l-0.5,1.8c0,0,0,0,0,0.1
	c-0.8-0.2-1.6-0.3-2.4-0.3c0,0,0,0,0-0.1V7C24,6.4,23.6,6,23,6C23,6,23,6,23,6z M23,12c5.5,0,10.3,2.9,12.9,7.3
	c-4,1.8-7,5.4-8.2,9.8c-5.3,0.2-9.6,4.1-10.4,9.2c-1.1,0.2-2.1,0.5-3.1,0.9C10.4,36.4,8,32,8,27C8,18.7,14.7,12,23,12z M32,30
	c-0.6,0-1,0.4-1,1s0.4,1,1,1c0.6,0,1-0.4,1-1S32.6,30,32,30z M56,31c-0.6,0-1,0.4-1,1c0,0.6,0.4,1,1,1s1-0.4,1-1
	C57,31.4,56.6,31,56,31z M35,32c-0.6,0-1,0.4-1,1s0.4,1,1,1s1-0.4,1-1S35.6,32,35,32z M56,35c-0.6,0-1,0.4-1,1s0.4,1,1,1s1-0.4,1-1
	S56.6,35,56,35z M23,39c-0.6,0-1,0.4-1,1s0.4,1,1,1s1-0.4,1-1S23.6,39,23,39z M27,41c-0.6,0-1,0.4-1,1s0.4,1,1,1s1-0.4,1-1
	S27.6,41,27,41z M67,44c-0.6,0-1,0.4-1,1s0.4,1,1,1s1-0.4,1-1S67.6,44,67,44z M54.1,44l-0.8,0.3l-0.2,0.3l-1.2,2.7l0,0.9l0.7,0.5
	l0.8-0.3l0.2-0.3l1.2-2.7l0-0.9L54.1,44z M40.2,44l-0.9,0.3l-0.2,0.3l-1.3,2.7l0,0.9l0.7,0.5l0.9-0.3l0.2-0.3l1.3-2.7l0-0.9L40.2,44
	z M65,47c-0.6,0-1,0.4-1,1s0.4,1,1,1s1-0.4,1-1S65.6,47,65,47z M45.1,48l-0.9,0.3l-0.2,0.3l-1.3,2.7l0,0.9l0.7,0.5l0.9-0.3l0.2-0.3
	l1.3-2.7l0-0.9L45.1,48z M36.2,52.1l-0.9,0.3l-0.2,0.3l-1.3,2.7l0,0.9l0.7,0.5l0.9-0.3l0.2-0.3l1.3-2.7l0-0.9L36.2,52.1z M50.5,52.2
	l-0.8,0.3l-0.2,0.3l-1.2,2.7l0,0.9L49,57l0.8-0.3l0.2-0.3l1.2-2.7l0-0.9L50.5,52.2z M41.4,56.2l-0.9,0.3l-0.2,0.3L39,59.5l0,0.9
	l0.7,0.5l0.8-0.3l0.2-0.3l1.3-2.7l0-0.9L41.4,56.2z M32.3,60.2l-0.9,0.3l-0.2,0.3L30,63.5l0,0.9l0.7,0.5l0.9-0.3l0.2-0.3l1.3-2.7
	l0-0.9L32.3,60.2z M46.8,60.5L46,60.8L45.8,61l-1.2,2.7l0,0.9l0.7,0.5l0.8-0.3l0.2-0.3l1.2-2.7l0-0.9L46.8,60.5z M37.6,64.3
	l-0.9,0.3l-0.2,0.3l-1.3,2.7l0,0.9L36,69l0.9-0.3l0.2-0.3l1.3-2.7l0-0.9L37.6,64.3z M28.4,68.3l-0.9,0.3l-0.2,0.3l-1.3,2.7l0,0.9
	l0.7,0.5l0.9-0.3l0.2-0.3l1.3-2.7l0-0.9L28.4,68.3z M43.2,68.7L42.3,69l-0.2,0.3l-1,2.3l0,0.9l0.7,0.5l0.8-0.3l0.2-0.3l1-2.3l0-0.9
	L43.2,68.7z M33.8,72.5l-0.9,0.3l-0.2,0.3l-1.3,2.7l0,0.9l0.7,0.5l0.8-0.3l0.2-0.3l1.3-2.7l0-0.9L33.8,72.5z"/>
</svg>
