<?xml version="1.0" encoding="UTF-8"?>
<!DOCTYPE svg PUBLIC "-//W3C//DTD SVG 1.1//EN" "http://www.w3.org/Graphics/SVG/1.1/DTD/svg11.dtd">
<!-- Creator: CorelDRAW -->
<svg xmlns="http://www.w3.org/2000/svg" xml:space="preserve" width="259px" height="137px" version="1.1" style="shape-rendering:geometricPrecision; text-rendering:geometricPrecision; image-rendering:optimizeQuality; fill-rule:evenodd; clip-rule:evenodd"
viewBox="0 0 259 137"
 xmlns:xlink="http://www.w3.org/1999/xlink"
 xmlns:xodm="http://www.corel.com/coreldraw/odm/2003">
 <defs>
  <style type="text/css">
   <![CDATA[
    .fil0 {fill:#6B0B15;fill-rule:nonzero}
    .fil1 {fill:#CF1717;fill-rule:nonzero}
    .fil2 {fill:#FFFFFF;fill-rule:nonzero}
   ]]>
  </style>
 </defs>
 <g id="Layer_x0020_1">
  <metadata id="CorelCorpID_0Corel-Layer"/>
  <path id="bottomw" class="fil2" d="M244.87 92l-239.8 -0.01 -4.26 24.34c-1.95,11.14 5.43,20.17 16.46,20.17l199.83 0c11.04,0 21.57,-9.03 23.51,-20.17l4.26 -24.33z"/>
  <path id="bottom" class="fil0" d="M0.81 116.33c-1.95,11.14 5.43,20.17 16.46,20.17l199.83 0c11.04,0 21.57,-9.03 23.51,-20.17l16.58 -94.66c1.94,-11.15 -5.43,-20.17 -16.46,-20.17l-199.84 0c-11.04,0 -21.56,9.02 -23.51,20.17l-16.57 94.66z"/>
  <polygon id="centerw" class="fil2" points="5.06,92 244.87,92 252.93,46 13.13,46 "/>
  <polygon id="center" class="fil1" points="5.06,92 244.87,92 252.93,46 13.13,46 "/>
  <path id="topw" class="fil2" d="M17.38 21.67l-4.33 24.83 239.8 0 4.33 -24.83c1.95,-11.15 -5.42,-20.17 -16.45,-20.17l-199.84 0c-11.04,0 -21.56,9.02 -23.51,20.17z"/>
  <path id="top" class="fil1" d="M17.38 21.67l-4.33 24.83 239.8 0 4.33 -24.83c1.95,-11.15 -5.42,-20.17 -16.45,-20.17l-199.84 0c-11.04,0 -21.56,9.02 -23.51,20.17z"/>
 </g>
</svg>
