<?xml version="1.0" encoding="utf-8"?>
<!-- Generator: Adobe Illustrator 28.0.0, SVG Export Plug-In . SVG Version: 6.00 Build 0)  -->
<svg version="1.1" id="Layer_2_00000139987604007570621250000015901361202521784744_"
	 xmlns="http://www.w3.org/2000/svg" xmlns:xlink="http://www.w3.org/1999/xlink" x="0px" y="0px" viewBox="0 0 630 150"
	 style="enable-background:new 0 0 630 150;" xml:space="preserve">
<style type="text/css">
	.st0{fill:#FFFFFF;}
	.st1{fill:#F42525;}
	.st2{fill:#FFCC00;}
</style>
<path id="black" d="M604.6,0h-553C35.1,0,19.3,13.4,16.3,30L0.5,120
	c-2.9,16.6,8.1,30,24.7,30h553c16.6,0,32.4-13.4,35.3-30l15.9-90C632.3,13.4,621.2,0,604.6,0z"/>
<path id="wite" class="st0" d="M604.6,0h-553C35.1,0,19.3,13.4,16.3,30L0.5,120c-2.9,16.6,8.1,30,24.7,30h553
	c16.6,0,32.4-13.4,35.3-30l15.9-90C632.3,13.4,621.2,0,604.6,0z"/>
<path id="red" class="st1" d="M604.6,0h-553C35.1,0,19.3,13.4,16.3,30L0.5,120
	c-2.9,16.6,8.1,30,24.7,30h553c16.6,0,32.4-13.4,35.3-30l15.9-90C632.3,13.4,621.2,0,604.6,0z"/>
<path id="bkg-icon" d="M140.2,150h-115c-16.6,0-27.6-13.4-24.7-30l15.9-90C19.3,13.4,35.1,0,51.6,0h115c16.6,0,27.6,13.4,24.7,30
	l-15.9,90C172.5,136.6,156.7,150,140.2,150z"/>
<path id="icon" class="st2" d="M95,33.6c-9.6,0-17.3,7.5-17.3,16.9V51h11.8c0.9,0,1.6,0.7,1.6,1.6c0,0.9-0.7,1.6-1.6,1.6H77.7v3.1
	h11.8c0.9,0,1.6,0.7,1.6,1.6c0,0.9-0.7,1.6-1.6,1.6H77.7v3.1h11.8c0.9,0,1.6,0.7,1.6,1.6s-0.7,1.6-1.6,1.6H77.7v3.6
	c0,9.3,7.8,16.9,17.3,16.9s17.3-7.5,17.3-16.9v-3.6h-11.8c-0.9,0-1.6-0.7-1.6-1.6s0.7-1.6,1.6-1.6h11.8v-3.1h-11.8
	c-0.9,0-1.6-0.7-1.6-1.6c0-0.9,0.7-1.6,1.6-1.6h11.8v-3.1h-11.8c-0.9,0-1.6-0.7-1.6-1.6c0-0.9,0.7-1.6,1.6-1.6h11.8v-0.4
	C112.3,41.2,104.6,33.6,95,33.6z M71.1,60.6C70.4,60.7,70,61.3,70,62v7.9c0,12.1,8.8,22.3,20.3,24.6v8.5h9.4v-8.5
	C111.2,92.2,120,82,120,69.9V62c0-0.8-0.6-1.4-1.4-1.4s-1.4,0.6-1.4,1.4v7.9c0,12.3-10,22.2-22.2,22.2s-22.2-10-22.2-22.2V62
	c0-0.4-0.2-0.8-0.4-1c-0.3-0.3-0.7-0.4-1.1-0.3C71.2,60.6,71.1,60.6,71.1,60.6z M80,106.1c-3,0-5.5,2.5-5.5,5.5l0,0.8l40.7-0.1
	l0-0.7c0-3-2.4-5.5-5.5-5.5H80z"/>
</svg>
