<?xml version="1.0" encoding="utf-8"?>
<!-- Generator: Adobe Illustrator 27.9.0, SVG Export Plug-In . SVG Version: 6.00 Build 0)  -->
<svg version="1.1" id="Layer_2_00000034804038311515030170000009872658848604108691_"
	 xmlns="http://www.w3.org/2000/svg" xmlns:xlink="http://www.w3.org/1999/xlink" x="0px" y="0px" viewBox="0 0 630.2 150"
	 style="enable-background:new 0 0 630.2 150;" xml:space="preserve">
<style type="text/css">
	.st0{fill:#F42525;}
	.st1{fill:#FFFFFF;}
</style>
<path id="red" class="st0" d="M587.5,150H16.3c-10.7,0-17.9-8.7-16-19.4L19.9,19.4C21.8,8.7,32,0,42.7,0H614
	c10.7,0,17.8,8.7,16,19.4l-19.6,111.2C608.4,141.3,598.2,150,587.5,150L587.5,150z"/>
<path id="down" class="st0" d="M4.7,105l-4.5,25.6c-1.9,10.7,5.3,19.4,16,19.4h571.2l0,0c10.7,0,20.9-8.7,22.8-19.4l4.5-25.6
	C614.7,105,4.7,105,4.7,105z"/>
<path id="black" d="M587.5,150H16.3c-10.7,0-17.9-8.7-16-19.4L19.9,19.4C21.8,8.7,32,0,42.7,0H614c10.7,0,17.8,8.7,16,19.4
	l-19.6,111.2C608.4,141.3,598.2,150,587.5,150L587.5,150z"/>
<path id="wite" class="st1" d="M587.5,150H16.3c-10.7,0-17.9-8.7-16-19.4L19.9,19.4C21.8,8.7,32,0,42.7,0H614
	c10.7,0,17.8,8.7,16,19.4l-19.6,111.2C608.4,141.3,598.2,150,587.5,150L587.5,150z"/>
</svg>
