<?xml version="1.0" encoding="UTF-8"?>
<!DOCTYPE svg PUBLIC "-//W3C//DTD SVG 1.1//EN" "http://www.w3.org/Graphics/SVG/1.1/DTD/svg11.dtd">
<!-- Creator: CorelDRAW -->
<svg xmlns="http://www.w3.org/2000/svg" xml:space="preserve" width="1626px" height="885px" version="1.1" style="shape-rendering:geometricPrecision; text-rendering:geometricPrecision; image-rendering:optimizeQuality; fill-rule:evenodd; clip-rule:evenodd"
viewBox="0 0 1626 885"
 xmlns:xlink="http://www.w3.org/1999/xlink"
 xmlns:xodm="http://www.corel.com/coreldraw/odm/2003">
 <defs>
  <style type="text/css">
   <![CDATA[
    .hide { display: none;}
    .show {stroke:#00C7B1;stroke-width:3; fill:none}
   ]]>
  </style>
 </defs>
 <g id="Layer_x0020_5">
  <metadata id="CorelCorpID_0Corel-Layer"/>
  <path id="arrow1" class="hide" d="M1523.27 544.2l-447.79 336.39m-204.23 0c-18.86,-42.59 -15.39,-115.17 18.22,-140.4l686.08 -515.02 -519.49 0.19 64.99 -220.85"/>
  <path id="arrow2" class="hide" d="M1517.68 571.69l-411.19 308.9m-236.36 0c-10.79,-42.57 -4.2,-99.44 24.75,-121.17l686.08 -515.03 -519.49 0.2 68.17 -231.63 470.3 0"/>
  <path id="arrow3" class="hide" d="M1512.1 599.18l-374.61 281.41m-265.53 0c-4.83,-39.07 3.57,-83.36 28.33,-101.94l678.88 -509.62m1.09 -5.41l-513.38 0.2 68.17 -231.64 481.13 0"/>
  <path id="arrow4" class="hide" d="M1506.51 626.66l-338.01 253.93m-292.42 0c-0.4,-33.49 8.87,-67.14 29.62,-82.72l667.88 -501.36m2.78 -13.66l-504.07 0.2 68.17 -231.64 480.48 0"/>
  <path id="arrow5" class="hide" d="M1500.93 654.15l-301.43 226.44m-317.15 0c2.74,-26.55 12,-50.91 28.76,-63.49l656.89 -493.11m4.45 -21.9l-494.75 0.18 68.17 -231.63 473.6 0"/>
  <path id="arrow6" class="hide" d="M1495.35 681.64l-264.84 198.95m-339.48 0c4.53,-18.7 12.9,-34.8 25.49,-44.26l645.9 -484.86m6.12 -30.15l-485.43 0.18 68.17 -231.63 464.28 0"/>
  <path id="arrow7" class="hide" d="M1489.76 709.13l-228.24 171.46m-358.57 0c4.69,-10.33 10.99,-19.03 18.99,-25.03l634.9 -476.61m7.8 -38.4l-476.11 0.18 68.17 -231.64 454.96 0"/>
  <path id="arrow8" class="hide" d="M1484.18 736.61l-191.65 143.98m-371.64 0c2.01,-2.14 4.16,-4.09 6.46,-5.81l623.9 -468.35m9.48 -46.65l-466.79 0.17 68.17 -231.63 445.64 0"/>
  <path id="arrow9" class="hide" d="M1478.59 764.1l-155.06 116.49m-372.89 0l595.03 -446.68m11.16 -54.9l-457.48 0.17 68.17 -231.63 436.33 0"/>
  <path id="arrow10" class="hide" d="M1473.01 791.59l-118.47 89m-372.87 0l558.42 -419.2m12.83 -63.15l-448.16 0.17 68.17 -231.64 427.01 0"/>
 </g>
</svg>
