<?xml version="1.0" encoding="UTF-8"?>
<!DOCTYPE svg PUBLIC "-//W3C//DTD SVG 1.1//EN" "http://www.w3.org/Graphics/SVG/1.1/DTD/svg11.dtd">
<!-- Creator: CorelDRAW -->
<svg xmlns="http://www.w3.org/2000/svg" xml:space="preserve" width="1626px" height="885px" version="1.1" style="shape-rendering:geometricPrecision; text-rendering:geometricPrecision; image-rendering:optimizeQuality; fill-rule:evenodd; clip-rule:evenodd"
viewBox="0 0 1626 885"
 xmlns:xlink="http://www.w3.org/1999/xlink"
 xmlns:xodm="http://www.corel.com/coreldraw/odm/2003">
 <defs>
  <style type="text/css">
   <![CDATA[
    .hide { display: none;}
    .show {stroke:#753BBD;stroke-width:3; fill:none}
   ]]>
  </style>
 </defs>
 <g id="Layer_x0020_4">
  <metadata id="CorelCorpID_0Corel-Layer"/>
  <path id="arrow1" class="hide" d="M88.72 406.53l174.51 0 45.42 142.88 -248.3 0m-9.08 45.72l356.78 265.55c5.53,4.12 10.71,11.53 14.5,20.83m-215.01 -0.92l-186.73 -139.17"/>
  <path id="arrow2" class="hide" d="M93.5 382.5l178.39 0 45.42 142.88 -252.19 0m-8.57 43.19l360.16 268.08c9.61,7.15 18.14,24.21 20.23,43.94m-188.49 0l-221.13 -164.81"/>
  <path id="arrow3" class="hide" d="M98.27 358.46l182.28 0 45.42 142.88 -256.07 0m-8.08 40.68l363.55 270.59c13.38,9.97 24.68,39.15 19.38,67.98m-155.39 0l-256.77 -191.37"/>
  <path id="arrow4" class="hide" d="M103.04 334.43l186.17 0 45.42 142.88 -259.96 0m-7.58 38.15l366.94 273.12c17.18,12.79 30.92,57.27 10.52,92.01m-114.28 0l-292.41 -217.93m-28.92 145.62l18.99 65.42"/>
  <path id="arrow5" class="hide" d="M107.81 310.39l190.05 0 45.42 142.88 -263.84 0m-7.08 35.64l370.32 275.63c18.35,13.66 32.77,63.4 5.93,98.88 -8.07,8.89 -17.01,14.66 -26.06,18.09m-48.67 -0.92c-4.13,-1.72 -7.75,-3.76 -10.67,-5.94l-320.07 -238.55m-27.84 140.2l28.21 97.2 -15.9 0"/>
  <path id="arrow6" class="hide" d="M112.59 286.36l193.93 0 45.42 142.88 -267.72 0m-6.58 33.11l373.7 278.16c18.35,13.65 32.77,63.4 5.93,98.88 -28.81,31.7 -68.57,23.77 -85.4,11.22l-323.46 -241.06m-27.6 131.87l31.36 108.05 -42.97 0"/>
 </g>
</svg>
