<?xml version="1.0" encoding="UTF-8"?>
<!DOCTYPE svg PUBLIC "-//W3C//DTD SVG 1.1//EN" "http://www.w3.org/Graphics/SVG/1.1/DTD/svg11.dtd">
<!-- Creator: CorelDRAW -->
<svg xmlns="http://www.w3.org/2000/svg" xml:space="preserve" width="1626px" height="885px" version="1.1" style="shape-rendering:geometricPrecision; text-rendering:geometricPrecision; image-rendering:optimizeQuality; fill-rule:evenodd; clip-rule:evenodd"
viewBox="0 0 1626 885"
 xmlns:xlink="http://www.w3.org/1999/xlink"
 xmlns:xodm="http://www.corel.com/coreldraw/odm/2003">
 <defs>
  <style type="text/css">
   <![CDATA[
    .fil0 {fill:url(#id0);fill-rule:nonzero}
   ]]>
  </style>
  <linearGradient id="id0" gradientUnits="userSpaceOnUse" x1="805.71" y1="286.06" x2="819.56" y2="761.77">
   <stop offset="0" style="stop-opacity:1; stop-color:#00C7B1"/>
   <stop offset="0.403922" style="stop-opacity:1; stop-color:#3A81B7"/>
   <stop offset="0.65098" style="stop-opacity:1; stop-color:#753BBD"/>
   <stop offset="1" style="stop-opacity:1; stop-color:#8F2C82"/>
  </linearGradient>
 </defs>
 <g id="Layer_x0020_2">
  <metadata id="CorelCorpID_0Corel-Layer"/>
  <path id="Border" class="fil0" d="M214.98 1.51l1355.16 0c28.12,0 59.25,27.21 53.13,57.88l-154.14 771.5c-6.28,31.33 -25.44,53.62 -59.1,53.62l-1354.17 0c-28.08,0 -60.25,-28.67 -54.12,-59.36l155.13 -770.02c6.14,-30.64 24.97,-53.62 58.11,-53.62zm1355.16 4l-1355.16 0c-31.23,0 -48.43,21.63 -54.18,50.4l-155.14 770.02c-5.64,28.21 24.7,54.58 50.2,54.58l1354.17 0c31.75,0 49.27,-20.93 55.17,-50.4l154.15 -771.5c5.62,-28.2 -23.73,-53.1 -49.21,-53.1z"/>
 </g>
</svg>
