<?xml version="1.0" encoding="UTF-8"?>
<!DOCTYPE svg PUBLIC "-//W3C//DTD SVG 1.1//EN" "http://www.w3.org/Graphics/SVG/1.1/DTD/svg11.dtd">
<!-- Creator: CorelDRAW -->
<svg xmlns="http://www.w3.org/2000/svg" xml:space="preserve" width="1644px" height="885px" version="1.1" style="shape-rendering:geometricPrecision; text-rendering:geometricPrecision; image-rendering:optimizeQuality; fill-rule:evenodd; clip-rule:evenodd"
viewBox="0 0 1644 885"
 xmlns:xlink="http://www.w3.org/1999/xlink"
 xmlns:xodm="http://www.corel.com/coreldraw/odm/2003">
 <defs>
  <style type="text/css">
   <![CDATA[
    .str0 {stroke:black;stroke-width:0.9;stroke-miterlimit:22.9256}
    .fil0 {fill:black;fill-rule:nonzero}
   ]]>
  </style>
 </defs>
 <g id="Layer_x0020_2">
  <metadata id="CorelCorpID_0Corel-Layer"/>
  <path id="Mask" class="fil0 str0" d="M228.73 0.5l0.01 3.5 -5.11 0c-31.24,0 -48.45,21.65 -54.21,50.45l-155.22 770.91c-5.64,28.24 24.71,54.64 50.23,54.64l1.88 0 0.12 5.5 -67.26 0 0 -885 229.56 0zm1414.48 885l-226.93 0 -0.06 -5.49 3.15 -0.01c31.77,0 49.31,-20.95 55.21,-50.46l154.23 -772.38c5.63,-28.23 -23.74,-53.16 -49.24,-53.16l-3.37 0 -0.02 -3.5 67.03 0 0 885z"/>
 </g>
</svg>
