<?xml version="1.0" encoding="UTF-8"?>
<!DOCTYPE svg PUBLIC "-//W3C//DTD SVG 1.1//EN" "http://www.w3.org/Graphics/SVG/1.1/DTD/svg11.dtd">
<!-- Creator: CorelDRAW -->
<svg xmlns="http://www.w3.org/2000/svg" xml:space="preserve" width="1350px" height="162px" version="1.1" style="shape-rendering:geometricPrecision; text-rendering:geometricPrecision; image-rendering:optimizeQuality; fill-rule:evenodd; clip-rule:evenodd"
viewBox="0 0 1350 162"
 xmlns:xlink="http://www.w3.org/1999/xlink"
 xmlns:xodm="http://www.corel.com/coreldraw/odm/2003">
 <defs>
  <style type="text/css">
   <![CDATA[
    .fil0 {fill:url(#id0);fill-rule:nonzero}
   ]]>
  </style>
  <linearGradient id="id0" gradientUnits="userSpaceOnUse" x1="98.93" y1="87.18" x2="976.25" y2="88.9">
   <stop offset="0" style="stop-opacity:1; stop-color:#8F2C82"/>
   <stop offset="1" style="stop-opacity:1; stop-color:#00C7B1"/>
  </linearGradient>
 </defs>
 <g id="Layer_x0020_1">
  <metadata id="CorelCorpID_0Corel-Layer"/>
  <path id="border" class="fil0" d="M43.74 1l1291.58 0c9.12,0 15.02,7.58 13.4,16.33l-23.86 128.06c-1.59,8.55 -9.86,15.61 -18.6,15.61l-1291.58 0c-8.97,0 -15.04,-7.46 -13.4,-16.33l23.86 -128.06c1.59,-8.57 9.85,-15.61 18.6,-15.61zm1291.58 4l-1291.58 0c-6.82,0 -13.44,5.66 -14.68,12.33l-23.86 128.06c-1.18,6.32 2.85,11.61 9.48,11.61l1291.58 0c6.81,0 13.44,-5.67 14.68,-12.33l23.86 -128.06c1.18,-6.32 -2.85,-11.61 -9.48,-11.61z"/>
 </g>
</svg>
