<?xml version="1.0" encoding="UTF-8"?>
<!DOCTYPE svg PUBLIC "-//W3C//DTD SVG 1.1//EN" "http://www.w3.org/Graphics/SVG/1.1/DTD/svg11.dtd">
<!-- Creator: CorelDRAW -->
<svg xmlns="http://www.w3.org/2000/svg" xml:space="preserve" width="279px" height="153px" version="1.1" style="shape-rendering:geometricPrecision; text-rendering:geometricPrecision; image-rendering:optimizeQuality; fill-rule:evenodd; clip-rule:evenodd"
viewBox="0 0 279 153"
 xmlns:xlink="http://www.w3.org/1999/xlink">
 <defs>
  <style type="text/css">
   <![CDATA[
    .fil0 {fill:black;}
   ]]>
  </style>
 </defs>
 <g id="Layer_x0020_1">
  <path class="fil0" d="M259.48 3.5l-218.1 0c-3.94,0 -7.62,1.63 -10.53,4.22 -3.09,2.75 -5.31,6.56 -6.1,10.69l-22.06 115.82c-0.75,3.95 1.04,7.97 3.64,10.87 2.73,3.06 6.79,5.4 10.97,5.4l221.11 0c3.72,0 6.8,-1.48 9.17,-3.84 2.76,-2.77 4.61,-6.75 5.45,-11.07l22.21 -114.62c0.8,-4.13 -0.13,-8.53 -2.77,-11.85 -3.18,-4.02 -8.03,-5.62 -12.99,-5.62z"/>
 </g>
</svg>
