<?xml version="1.0" encoding="UTF-8"?>
<!DOCTYPE svg PUBLIC "-//W3C//DTD SVG 1.1//EN" "http://www.w3.org/Graphics/SVG/1.1/DTD/svg11.dtd">
<!-- Creator: CorelDRAW -->
<svg xmlns="http://www.w3.org/2000/svg" xml:space="preserve" width="279px" height="153px" version="1.1" style="shape-rendering:geometricPrecision; text-rendering:geometricPrecision; image-rendering:optimizeQuality; fill-rule:evenodd; clip-rule:evenodd"
viewBox="0 0 279 153"
 xmlns:xlink="http://www.w3.org/1999/xlink"
 xmlns:xodm="http://www.corel.com/coreldraw/odm/2003">
 <defs>
  <style type="text/css">
   <![CDATA[
    .fil0 {fill:url(#id0);fill-rule:nonzero}
   ]]>
  </style>
  <linearGradient id="id0" gradientUnits="userSpaceOnUse" x1="53.25" y1="88.62" x2="243.04" y2="45.47">
   <stop offset="0" style="stop-opacity:1; stop-color:#8F2C82"/>
   <stop offset="0.0470588" style="stop-opacity:1; stop-color:#82339F"/>
   <stop offset="0.14902" style="stop-opacity:1; stop-color:#753BBD"/>
   <stop offset="1" style="stop-opacity:1; stop-color:#00C7B1"/>
  </linearGradient>
 </defs>
 <g id="Layer_x0020_1">
  <metadata id="CorelCorpID_0Corel-Layer"/>
  <path class="fil0" d="M41.73 0.5l217.31 0c1.62,0 3.17,0.15 4.62,0.43 4.84,0.93 8.55,3.32 11.05,6.47 2.52,3.16 3.81,7.07 3.81,11.05 0,1.17 -0.12,2.36 -0.35,3.55l-22.13 113.85c-0.96,4.95 -3.13,9.54 -6.39,12.8 -3,2.99 -6.89,4.85 -11.6,4.85l-220.3 0c-0.94,0 -1.89,-0.09 -2.83,-0.27 -4.03,-0.77 -7.88,-3.12 -10.71,-6.26 -2.85,-3.18 -4.7,-7.2 -4.7,-11.28 0,-0.81 0.08,-1.64 0.24,-2.48l21.99 -115.05c0.93,-4.87 3.55,-9.36 7.18,-12.58 3.51,-3.12 7.99,-5.08 12.81,-5.08zm217.31 3.49l-217.31 0c-3.92,0 -7.59,1.62 -10.49,4.19 -3.07,2.73 -5.29,6.52 -6.07,10.62l-21.99 115.05c-0.11,0.59 -0.17,1.21 -0.17,1.84 0,3.19 1.49,6.39 3.8,8.96 2.34,2.6 5.48,4.53 8.75,5.16 0.71,0.13 1.44,0.2 2.19,0.2l220.3 0c3.7,0 6.77,-1.46 9.13,-3.82 2.76,-2.74 4.6,-6.7 5.43,-10.99l22.13 -113.85c0.19,-0.95 0.28,-1.92 0.28,-2.9 0,-3.21 -1.03,-6.36 -3.04,-8.88 -2.01,-2.53 -5.02,-4.45 -8.98,-5.22 -1.22,-0.23 -2.54,-0.36 -3.96,-0.36z"/>
 </g>
</svg>
