<?xml version="1.0" encoding="UTF-8"?>
<!DOCTYPE svg PUBLIC "-//W3C//DTD SVG 1.1//EN" "http://www.w3.org/Graphics/SVG/1.1/DTD/svg11.dtd">
<!-- Creator: CorelDRAW -->
<svg xmlns="http://www.w3.org/2000/svg" xml:space="preserve" width="291px" height="153px" version="1.1" style="shape-rendering:geometricPrecision; text-rendering:geometricPrecision; image-rendering:optimizeQuality; fill-rule:evenodd; clip-rule:evenodd"
viewBox="0 0 291 153"
 xmlns:xlink="http://www.w3.org/1999/xlink"
 xmlns:xodm="http://www.corel.com/coreldraw/odm/2003">
 <defs>
  <style type="text/css">
   <![CDATA[
    .fil0 {fill:black}
   ]]>
  </style>
 </defs>
 <g id="Layer_x0020_1">
  <metadata id="CorelCorpID_0Corel-Layer"/>
  <path class="fil0" d="M-0.49 0.5l291 0 0 153 -291 0 0 -153zm265.75 3.25l-217.7 0c-3.93,0 -7.6,1.62 -10.51,4.2 -3.08,2.74 -5.3,6.54 -6.08,10.65l-22.03 115.43c-0.11,0.6 -0.17,1.22 -0.17,1.85 0,3.2 1.49,6.41 3.8,8.99 2.34,2.6 5.5,4.55 8.77,5.17 0.71,0.13 1.44,0.21 2.19,0.21l220.7 0c3.72,0 6.79,-1.47 9.16,-3.84 2.75,-2.75 4.6,-6.72 5.43,-11.03l22.17 -114.22c0.19,-0.95 0.28,-1.93 0.28,-2.9 0,-3.23 -1.03,-6.39 -3.04,-8.92 -2.02,-2.54 -5.04,-4.46 -9,-5.23 -1.22,-0.24 -2.54,-0.36 -3.97,-0.36z"/>
 </g>
</svg>
